<svg width="585" height="190" fill="none" xmlns="http://www.w3.org/2000/svg"><path d="M1.102 77.254c-3.5 7.7 10.5 41.5 72.5 21-15 2-37.5-2.5-51-14.5-2.393-2.127-6-8.5-11-10.5-3.425-1.37-8-1.5-10.5 4Z" fill="#05CEFC"/><path d="M29.102 81.755c11.5 13.5 31.5 12.5 42.5 12.5-16.5-2-26.5-11-32.5-20.5-3-4.75-6.5-13.334-13.5-7.5-3.504 2.92 1 12.565 3.5 15.5Z" fill="#3ED9FF"/><path d="M53.104 67.644c-4-14.5-15.502-8.89-10.002 3.11 5 12.5 19.5 18 27.5 19-9-4-15.998-16.11-17.498-22.11Z" fill="#72DEFA"/><path d="M29.662 162.396c4.918 6.881 41.19 11.657 54.436-52.287-5.768 13.991-20.915 31.226-38.057 36.917-3.039 1.009-10.362.947-14.594 4.277-2.898 2.28-5.299 6.178-1.785 11.093Z" fill="#0271FF"/><path d="M47.559 140.397c17.441-3.209 26.575-21.03 32.075-30.556-9.982 13.29-22.776 17.45-34.004 17.896-5.613.223-14.797-1.037-13.245 7.941.777 4.494 11.382 5.417 15.174 4.719Z" fill="#4092FD"/><path d="M47.34 112.556c-14.558-3.786-15.45 8.98-2.308 10.217 13.326 1.92 25.339-7.888 30.205-14.316-7.964 5.794-21.951 5.8-27.897 4.099Z" fill="#72B1F7"/><path d="M117.662 179.942c8.419-.819 30.691-29.844-18.063-73.287 9.232 11.99 16.585 33.726 12.943 51.417-.646 3.136-4.362 9.446-3.594 14.776.526 3.65 2.701 7.679 8.714 7.094Z" fill="#8142CE"/><path d="M107.56 153.443c5.941-16.71-4.925-33.53-10.425-43.056 6.518 15.289 3.724 28.449-1.504 38.396-2.613 4.973-8.297 12.295.255 15.441 4.28 1.574 10.382-7.149 11.674-10.781Z" fill="#905ADC"/><path d="M83.339 139.712c-10.558 10.714.052 17.87 7.694 7.106 8.326-10.58 5.839-25.887 2.705-33.315 1.036 9.794-5.953 21.909-10.4 26.209Z" fill="#A777E4"/><path d="M60.044 9.558c-8.419.82-30.69 29.844 18.063 73.287-9.232-11.99-16.585-33.726-12.942-51.417.645-3.136 4.36-9.446 3.593-14.776-.526-3.65-2.701-7.679-8.714-7.094Z" fill="#59BA00"/><path d="M70.147 36.057c-5.942 16.71 4.924 33.53 10.424 43.056-6.518-15.29-3.723-28.45 1.504-38.396 2.613-4.973 8.297-12.295-.255-15.44-4.28-1.575-10.382 7.148-11.673 10.78Z" fill="#71C417"/><path d="M94.368 49.788c10.557-10.714-.053-17.87-7.695-7.106-8.325 10.58-5.838 25.887-2.704 33.315-1.036-9.794 5.952-21.91 10.399-26.209Z" fill="#7CD62E"/><path d="M148.546 27.185c-4.919-6.881-41.19-11.657-54.437 52.287 5.768-13.99 20.915-31.226 38.058-36.918 3.038-1.009 10.361-.946 14.593-4.276 2.898-2.28 5.299-6.178 1.786-11.093Z" fill="#FF7D00"/><path d="M130.649 49.183c-17.442 3.21-26.576 21.03-32.076 30.557 9.982-13.29 22.777-17.45 34.004-17.896 5.613-.223 14.797 1.037 13.245-7.942-.777-4.494-11.382-5.416-15.173-4.719Z" fill="#FD902D"/><path d="M130.867 77.025c14.558 3.786 15.45-8.98 2.308-10.217-13.325-1.92-25.339 7.887-30.205 14.316 7.965-5.795 21.951-5.8 27.897-4.099Z" fill="#F49B44"/><path d="M176.706 112.507c3.5-7.7-10.5-41.5-72.5-21 15-2 37.5 2.5 51 14.5 2.393 2.127 6 8.5 11 10.5 3.424 1.369 8 1.5 10.5-4Z" fill="#FF2906"/><path d="M148.706 108.007c-11.5-13.5-31.5-12.5-42.5-12.5 16.5 2 26.5 11 32.5 20.5 3 4.75 6.5 13.333 13.5 7.5 3.503-2.92-1-12.565-3.5-15.5Z" fill="#F54922"/><path d="M124.704 122.117c4 14.5 15.502 8.89 10.002-3.11-5-12.5-19.5-18-27.5-19 9 4 15.998 16.11 17.498 22.11Z" fill="#FE735B"/><path d="M219.971 161.682c0 .798.093 1.447.279 1.948.204.483.491.863.862 1.141.371.279.835.474 1.392.585.575.093 1.243.139 2.004.139 1.224 0 2.328-.12 3.312-.362a22.316 22.316 0 0 0 2.588-.835 27.776 27.776 0 0 0 1.865-.862c.519-.26.918-.39 1.197-.39.352 0 .631.111.835.334.204.223.306.547.306.974 0 .742-.074 1.28-.223 1.614-.148.316-.454.557-.918.724-1.689.594-3.591 1.03-5.706 1.308-2.115.297-4.509.445-7.181.445-1.985 0-3.608-.092-4.87-.278-1.262-.167-2.255-.473-2.978-.918-.724-.446-1.225-1.049-1.503-1.81-.26-.779-.39-1.772-.39-2.978v-31.617c0-.408-.046-.733-.139-.974a1.26 1.26 0 0 0-.39-.557 1.168 1.168 0 0 0-.612-.278 3.083 3.083 0 0 0-.751-.083c-.408 0-.919.065-1.531.194-.594.13-1.225.325-1.893.585-.668.26-1.345.584-2.031.974a9.908 9.908 0 0 0-1.809 1.28 6.637 6.637 0 0 0-1.281 1.615 3.848 3.848 0 0 0-.501 1.92c0 .594.075 1.067.223 1.419.167.353.352.622.557.808.204.167.408.278.612.334.223.037.38.055.473.055.464 0 .844-.074 1.141-.222.297-.167.566-.334.807-.501.241-.186.464-.353.668-.501.223-.167.473-.251.752-.251.222 0 .454.056.696.167.259.093.491.251.695.473.223.223.409.52.557.891.148.352.223.788.223 1.308 0 .742-.149 1.382-.446 1.92a4.184 4.184 0 0 1-1.113 1.364 4.757 4.757 0 0 1-1.559.807 6.16 6.16 0 0 1-1.725.251c-.891 0-1.698-.149-2.422-.446a5.514 5.514 0 0 1-1.809-1.28 5.445 5.445 0 0 1-1.141-1.892 6.782 6.782 0 0 1-.389-2.31c0-1.281.232-2.45.695-3.507a10.02 10.02 0 0 1 1.893-2.895 13.006 13.006 0 0 1 2.839-2.226 18.543 18.543 0 0 1 3.535-1.615 22.79 22.79 0 0 1 3.952-.946 25.652 25.652 0 0 1 4.119-.334c1.521 0 2.7.149 3.534.445.854.279 1.476.622 1.865 1.03.408.408.65.835.724 1.28.074.446.111.817.111 1.114v31.422Zm26.441 3.813c0 .241-.047.538-.14.891-.074.334-.269.658-.584.974-.297.297-.733.547-1.308.751-.575.223-1.355.334-2.338.334-.983 0-1.753-.12-2.31-.362-.557-.222-.974-.491-1.253-.807-.278-.315-.454-.64-.528-.974a5.122 5.122 0 0 1-.084-.807v-21.486c0-.538-.13-1.002-.389-1.392-.242-.408-.659-.612-1.253-.612-.315 0-.584.056-.807.167a4.316 4.316 0 0 0-.724.473l-.584-.696c.427-.352.9-.696 1.419-1.03a11.006 11.006 0 0 1 1.726-.918c.612-.26 1.271-.473 1.976-.64a9.632 9.632 0 0 1 2.227-.251c1.206 0 2.143.167 2.811.501.668.316 1.159.715 1.475 1.197.315.464.501.965.556 1.503.075.538.112 1.011.112 1.419v21.765Zm-9.408-32.73c0-.52.112-1.012.334-1.475.242-.483.566-.9.974-1.253.427-.352.91-.631 1.448-.835a5.213 5.213 0 0 1 1.809-.306c.631 0 1.215.102 1.753.306a4.642 4.642 0 0 1 1.448.835c.408.353.723.77.946 1.253.241.463.362.955.362 1.475 0 .538-.121 1.039-.362 1.503a3.763 3.763 0 0 1-.946 1.224 4.966 4.966 0 0 1-1.448.807 4.903 4.903 0 0 1-1.753.306c-.65 0-1.253-.102-1.809-.306a5.496 5.496 0 0 1-1.448-.807 4.135 4.135 0 0 1-.974-1.224 3.438 3.438 0 0 1-.334-1.503Z" fill="#000"/><path d="M267.174 126.614c-.519 0-1.011.111-1.475.334-.464.222-.872.584-1.224 1.085-.334.483-.603 1.104-.808 1.865-.204.761-.306 1.679-.306 2.755v6.847h6.096v2.004h-6.096v21.932c0 2.523-.334 4.852-1.002 6.985-.649 2.134-1.642 3.971-2.978 5.511-1.336 1.559-3.006 2.774-5.009 3.646-2.004.872-4.342 1.308-7.014 1.308-.946 0-1.856-.083-2.728-.25-.872-.149-1.642-.362-2.31-.64-.668-.279-1.196-.613-1.586-1.002-.408-.371-.612-.789-.612-1.253 0-.334.046-.677.139-1.03.093-.334.232-.64.417-.918.186-.278.418-.51.696-.696.26-.167.566-.25.918-.25.205 0 .39.102.557.306.149.204.306.454.473.751.167.297.362.622.585.974.204.372.473.705.807 1.002.334.297.751.548 1.252.752.483.204 1.076.306 1.782.306.946 0 1.781-.195 2.504-.584a5.56 5.56 0 0 0 1.865-1.559c.52-.668.956-1.457 1.308-2.366.353-.909.631-1.883.835-2.922a25.55 25.55 0 0 0 .418-3.257c.093-1.131.139-2.263.139-3.395v-23.351h-5.121V139.5h5.121v-3.256c0-1.633.195-3.053.584-4.259.409-1.224.937-2.263 1.587-3.117a9.188 9.188 0 0 1 2.254-2.087 13.027 13.027 0 0 1 2.533-1.281 12.433 12.433 0 0 1 2.533-.64 16.16 16.16 0 0 1 2.143-.167c1.317 0 2.486.102 3.507.307 1.02.185 1.874.445 2.56.779.687.315 1.206.686 1.559 1.113.352.427.528.863.528 1.308 0 .334-.055.677-.167 1.03a3.548 3.548 0 0 1-.417.946 2.467 2.467 0 0 1-.696.696 1.61 1.61 0 0 1-.89.251c-.205 0-.39-.112-.557-.334a7.474 7.474 0 0 1-.529-.835c-.185-.334-.39-.696-.612-1.086a5.164 5.164 0 0 0-.835-1.085 4.03 4.03 0 0 0-1.141-.835c-.446-.223-.974-.334-1.587-.334Zm11.439 28.611c0 .594.084 1.243.251 1.948a12.437 12.437 0 0 0 2.004 4.119 10.524 10.524 0 0 0 1.697 1.698c.65.501 1.364.9 2.143 1.197.78.297 1.633.445 2.561.445.649 0 1.252-.074 1.809-.222a7.198 7.198 0 0 0 1.559-.613c.482-.259.946-.556 1.391-.89.446-.353.891-.724 1.336-1.114l.696.668a19.068 19.068 0 0 1-1.642 1.893c-.668.687-1.475 1.336-2.421 1.948-.947.594-2.051 1.095-3.312 1.503-1.262.39-2.7.585-4.314.585-1.615 0-3.192-.288-4.732-.863a11.919 11.919 0 0 1-4.063-2.644c-1.188-1.169-2.143-2.626-2.867-4.37-.705-1.744-1.058-3.785-1.058-6.123 0-1.688.214-3.238.641-4.648.426-1.41 1.001-2.681 1.725-3.813a14.742 14.742 0 0 1 2.561-2.978 15.792 15.792 0 0 1 3.089-2.115 14.322 14.322 0 0 1 3.284-1.28c1.132-.297 2.217-.446 3.257-.446 1.373 0 2.569.149 3.59.446 1.02.297 1.865.695 2.533 1.196.686.501 1.196 1.086 1.53 1.754a4.44 4.44 0 0 1 .501 2.059c0 .873-.25 1.661-.751 2.366-.501.687-1.169 1.29-2.004 1.809l-10.994 6.485Zm5.595-5.65a4.33 4.33 0 0 0 .584-.417c.167-.149.297-.316.39-.501.092-.204.157-.446.194-.724.056-.297.084-.659.084-1.085 0-.464-.056-.974-.167-1.531a5.86 5.86 0 0 0-.501-1.614 3.986 3.986 0 0 0-.918-1.253 1.93 1.93 0 0 0-1.336-.501c-.668 0-1.244.204-1.726.613-.464.389-.854.899-1.169 1.53a10.665 10.665 0 0 0-.724 2.171 26.38 26.38 0 0 0-.389 2.422 26.442 26.442 0 0 0-.167 2.365 75.441 75.441 0 0 0-.028 1.893l5.873-3.368Zm57.25-.723h-10.994v15.502c0 1.429-.38 2.468-1.141 3.117-.742.65-1.883.974-3.423.974-1.559 0-2.709-.324-3.451-.974-.742-.649-1.114-1.688-1.114-3.117v-15.502h-4.341v-2.45h4.341v-17.506c-.593.056-1.28.167-2.059.334a15.73 15.73 0 0 0-2.366.668c-.798.278-1.586.612-2.366 1.002-.779.39-1.475.844-2.087 1.364a7.067 7.067 0 0 0-1.503 1.753 3.991 3.991 0 0 0-.557 2.06c0 .593.075 1.067.223 1.419.167.353.353.622.557.807.204.167.408.279.612.334.223.037.38.056.473.056.464 0 .844-.074 1.141-.223.297-.167.566-.334.807-.501.242-.185.464-.352.668-.501.223-.167.474-.25.752-.25.223 0 .454.055.696.167.259.093.491.25.695.473.223.223.409.519.557.891.149.352.223.788.223 1.308 0 .742-.149 1.391-.446 1.948a3.906 3.906 0 0 1-1.113 1.336 4.8 4.8 0 0 1-1.558.807 6.17 6.17 0 0 1-1.726.25c-.891 0-1.698-.148-2.421-.445a5.514 5.514 0 0 1-1.809-1.28 5.5 5.5 0 0 1-1.142-1.865 6.89 6.89 0 0 1-.389-2.338c0-2.171.594-4.017 1.781-5.538 1.206-1.522 2.848-2.765 4.926-3.73 2.078-.983 4.5-1.698 7.264-2.143 2.765-.445 5.725-.668 8.879-.668 1.28 0 2.616.019 4.008.056 1.391.018 2.699.055 3.924.111 1.243.056 2.338.121 3.284.195.946.074 1.614.158 2.004.25.371.093.668.195.891.307.222.111.389.241.501.389.111.149.185.325.222.529.037.186.056.408.056.668a3.611 3.611 0 0 1-.334 1.503c-.111.223-.25.417-.417.584a.835.835 0 0 1-.613.251c-.148 0-.315-.065-.501-.195a8.541 8.541 0 0 0-.751-.501c-.316-.204-.752-.417-1.308-.64-.538-.223-1.271-.436-2.199-.64-.909-.204-2.05-.371-3.423-.501-1.355-.13-2.997-.195-4.927-.195v17.84h10.994v2.45Zm2.95 4.898c0-2.431.353-4.555 1.058-6.374.705-1.836 1.642-3.367 2.811-4.592a11.574 11.574 0 0 1 4.119-2.755 13.283 13.283 0 0 1 4.898-.919c1.707 0 3.34.288 4.899.863a10.91 10.91 0 0 1 4.091 2.589c1.188 1.168 2.134 2.653 2.839 4.453.705 1.781 1.058 3.896 1.058 6.345 0 2.431-.353 4.583-1.058 6.457-.705 1.874-1.651 3.452-2.839 4.732a11.77 11.77 0 0 1-4.091 2.922c-1.559.65-3.192.974-4.899.974-1.707 0-3.339-.306-4.898-.918a11.905 11.905 0 0 1-4.119-2.783c-1.169-1.225-2.106-2.756-2.811-4.593-.705-1.837-1.058-3.97-1.058-6.401Zm17.117-.278c0-1.485-.056-2.913-.167-4.286-.093-1.392-.288-2.626-.585-3.702-.296-1.076-.723-1.93-1.28-2.561-.556-.649-1.289-.974-2.199-.974-.909 0-1.642.343-2.198 1.03-.557.668-.984 1.559-1.281 2.672-.296 1.095-.491 2.347-.584 3.757a66.004 66.004 0 0 0-.139 4.342c0 1.484.046 2.941.139 4.37.093 1.41.288 2.672.584 3.785.297 1.113.724 2.013 1.281 2.699.556.668 1.289 1.002 2.198 1.002.91 0 1.643-.352 2.199-1.057.557-.705.984-1.633 1.28-2.783.297-1.151.492-2.45.585-3.897.111-1.447.167-2.913.167-4.397Zm38.213 9.685c0 .167.01.353.028.557.019.185.065.371.139.557.074.167.186.306.334.417.149.111.362.167.64.167.353 0 .668-.121.947-.362.278-.26.538-.519.779-.779l.668.584c-.278.39-.631.826-1.058 1.308-.408.464-.909.91-1.503 1.336a8.386 8.386 0 0 1-2.031 1.058c-.761.297-1.624.445-2.589.445-.816 0-1.53-.111-2.143-.334a4.844 4.844 0 0 1-1.531-.835 3.622 3.622 0 0 1-.918-1.28 4.166 4.166 0 0 1-.306-1.586v-1.253a21.449 21.449 0 0 1-2.923 2.644c-.445.334-.918.659-1.419.974-.501.316-1.02.603-1.559.863-.538.241-1.094.436-1.669.585a6.91 6.91 0 0 1-1.726.222c-1.113 0-2.069-.195-2.867-.584-.779-.408-1.41-.937-1.892-1.587a6.524 6.524 0 0 1-1.058-2.198 9.264 9.264 0 0 1-.334-2.45v-17.228c0-.167-.009-.343-.028-.528a1.746 1.746 0 0 0-.139-.557 1.002 1.002 0 0 0-.334-.445c-.148-.112-.362-.167-.64-.167-.334 0-.649.13-.946.389a7.212 7.212 0 0 0-.752.752l-.696-.585c.279-.389.622-.816 1.03-1.28a9.23 9.23 0 0 1 1.531-1.364 8.426 8.426 0 0 1 2.032-1.057c.779-.297 1.642-.446 2.588-.446.816 0 1.531.112 2.143.334.612.204 1.123.492 1.531.863.408.353.714.779.918 1.28.204.483.307 1.002.307 1.559v18.592c0 .26.037.529.111.807.093.26.213.501.362.724a2.2 2.2 0 0 0 .612.556c.241.13.529.195.863.195.538 0 1.076-.139 1.614-.417a8.11 8.11 0 0 0 1.475-.975c.445-.389.826-.77 1.141-1.141.334-.371.575-.649.724-.835v-16.254c0-.167-.009-.343-.028-.528a1.773 1.773 0 0 0-.139-.557 1.01 1.01 0 0 0-.334-.445c-.149-.112-.362-.167-.64-.167-.334 0-.65.13-.947.389a7.299 7.299 0 0 0-.751.752l-.696-.585c.279-.389.622-.816 1.03-1.28a9.23 9.23 0 0 1 1.531-1.364 8.419 8.419 0 0 1 2.031-1.057c.78-.297 1.643-.446 2.589-.446.816 0 1.531.112 2.143.334.612.204 1.122.492 1.531.863.408.353.714.779.918 1.28.204.483.306 1.002.306 1.559v20.011Zm23.713-9.017c0-2.338-.111-4.203-.334-5.595-.204-1.41-.482-2.477-.835-3.2-.352-.742-.742-1.225-1.169-1.448a2.628 2.628 0 0 0-1.308-.361c-.538 0-1.02.148-1.447.445-.408.278-.77.603-1.086.974-.296.371-.556.742-.779 1.113-.204.371-.38.65-.529.835v18.592c0 .241-.037.538-.111.891-.074.334-.26.658-.557.974-.278.297-.705.547-1.28.751-.557.223-1.327.334-2.31.334-.983 0-1.763-.12-2.338-.362-.556-.222-.983-.491-1.28-.807-.297-.315-.483-.64-.557-.974a3.924 3.924 0 0 1-.111-.807v-21.486c0-.538-.13-1.002-.39-1.392-.241-.408-.658-.612-1.252-.612a1.79 1.79 0 0 0-.807.167 4.316 4.316 0 0 0-.724.473l-.584-.696c.426-.352.899-.696 1.419-1.03a10.961 10.961 0 0 1 1.726-.918c.612-.26 1.271-.473 1.976-.64a9.63 9.63 0 0 1 2.226-.251c1.206 0 2.143.204 2.811.613.668.389 1.16.862 1.475 1.419.316.557.501 1.141.557 1.754.074.593.111 1.094.111 1.502a15.257 15.257 0 0 1 2.338-2.644c.353-.334.742-.658 1.169-.974.446-.315.909-.593 1.392-.835a8.015 8.015 0 0 1 1.558-.612 6.586 6.586 0 0 1 1.698-.223c1.262 0 2.375.242 3.34.724.983.482 1.809 1.29 2.477 2.421.668 1.132 1.178 2.635 1.531 4.509.352 1.856.529 4.166.529 6.93 0 2.691-.242 5.029-.724 7.014-.482 1.985-1.113 3.674-1.893 5.065-.779 1.392-1.66 2.524-2.644 3.396-.983.891-1.976 1.586-2.978 2.087-1.002.501-1.966.845-2.894 1.03-.909.204-1.698.316-2.366.334l-.306-1.141a5.301 5.301 0 0 0 1.531-.612c.482-.279.918-.687 1.308-1.225.389-.538.733-1.215 1.03-2.032.296-.835.547-1.874.751-3.117.223-1.243.38-2.709.473-4.397.112-1.707.167-3.693.167-5.956Zm29.753-1.253v-1.224c0-.631-.019-1.346-.056-2.143a45.894 45.894 0 0 0-.195-2.589 16.755 16.755 0 0 0-.445-2.533 9.036 9.036 0 0 0-1.503-1.53c-.538-.464-1.234-.696-2.088-.696-1.447 0-2.514.946-3.2 2.839-.668 1.892-1.002 4.824-1.002 8.795 0 1.744.074 3.34.223 4.787.166 1.447.408 2.69.723 3.729.334 1.039.752 1.846 1.253 2.422.519.575 1.131.862 1.836.862 2.969 0 4.454-4.239 4.454-12.719Zm-.334-12.246a28.677 28.677 0 0 0-1.475-5.177c-.631-1.614-1.392-3.006-2.283-4.174-.872-1.169-1.874-2.088-3.006-2.756a6.905 6.905 0 0 0-3.618-1.002c-.742 0-1.419.093-2.031.279a7.52 7.52 0 0 0-1.559.668 7.262 7.262 0 0 0-1.113.723c-.279.223-.483.39-.613.501l-.723-.974a9.474 9.474 0 0 1 1.614-1.614 11.074 11.074 0 0 1 2.115-1.281c.761-.352 1.559-.63 2.394-.834a10.812 10.812 0 0 1 2.532-.307c2.747 0 5.159.603 7.237 1.809 2.078 1.188 3.813 2.876 5.204 5.066 1.392 2.189 2.44 4.833 3.145 7.932.706 3.099 1.058 6.541 1.058 10.326 0 3.061-.315 5.752-.946 8.071-.613 2.319-1.494 4.268-2.644 5.845-1.151 1.558-2.552 2.737-4.203 3.534-1.633.78-3.479 1.169-5.538 1.169-1.429 0-2.886-.25-4.37-.751-1.466-.52-2.802-1.355-4.008-2.505-1.187-1.15-2.162-2.653-2.922-4.509-.761-1.874-1.141-4.165-1.141-6.874 0-2.338.324-4.416.974-6.235.668-1.818 1.558-3.349 2.672-4.592 1.113-1.262 2.402-2.217 3.868-2.867a11.08 11.08 0 0 1 4.648-1.002c.631 0 1.197.056 1.698.167.501.093.937.214 1.308.362.371.149.696.316.974.501.278.167.529.334.752.501Zm26.19 12.942c0-.464-.149-.816-.446-1.058-.297-.241-.677-.361-1.141-.361-.649 0-1.271.148-1.865.445-.575.297-1.085.733-1.53 1.308-.446.575-.798 1.29-1.058 2.143-.26.835-.39 1.809-.39 2.922 0 1.077.075 1.967.223 2.672.167.705.38 1.271.64 1.698.278.408.594.696.946.863.353.167.724.25 1.114.25.482 0 .937-.12 1.364-.361.426-.26.797-.585 1.113-.975.315-.389.566-.825.751-1.308.186-.482.279-.965.279-1.447v-6.791Zm-4.426-12.19a6.59 6.59 0 0 0-1.753.222 6.063 6.063 0 0 0-1.392.557c-.389.223-.696.473-.918.751-.223.26-.334.511-.334.752 0 .278.139.482.417.612.297.111.622.251.974.418.353.148.668.371.947.668.297.278.445.714.445 1.308 0 .389-.083.751-.25 1.085a2.82 2.82 0 0 1-.641.863 3.01 3.01 0 0 1-.946.584 3.19 3.19 0 0 1-1.113.195c-1.039 0-1.883-.352-2.533-1.057-.631-.705-.946-1.643-.946-2.811 0-1.132.297-2.097.89-2.895.594-.816 1.364-1.484 2.311-2.004.964-.519 2.05-.9 3.256-1.141 1.206-.26 2.412-.39 3.618-.39 1.447 0 2.83.158 4.147.473 1.317.316 2.477.817 3.479 1.503a7.6 7.6 0 0 1 2.421 2.617c.613 1.057.919 2.338.919 3.84v15.726c0 .167.009.352.028.556.018.204.065.39.139.557.074.167.185.306.334.417.148.112.362.167.64.167.334 0 .64-.12.918-.362.297-.259.557-.519.78-.779l.696.585c-.279.389-.613.816-1.002 1.28a8.065 8.065 0 0 1-3.368 2.338c-.742.278-1.587.417-2.533.417-1.169 0-2.208-.343-3.117-1.029-.909-.706-1.503-1.782-1.781-3.229-.594.798-1.216 1.466-1.865 2.004a9.688 9.688 0 0 1-1.948 1.308 8.618 8.618 0 0 1-2.032.724 9.364 9.364 0 0 1-2.032.222 8.14 8.14 0 0 1-2.588-.417 6.425 6.425 0 0 1-2.255-1.308c-.649-.613-1.178-1.401-1.586-2.366-.39-.965-.584-2.143-.584-3.535 0-1.688.334-3.07 1.002-4.147a8.844 8.844 0 0 1 2.616-2.699c1.094-.743 2.328-1.373 3.701-1.893a216.29 216.29 0 0 0 4.259-1.642c1.076-.427 1.855-1.058 2.338-1.893.501-.853.751-1.725.751-2.616 0-1.373-.408-2.468-1.225-3.284-.797-.835-1.892-1.252-3.284-1.252Zm29.307.111v20.568c0 .983.186 1.67.557 2.059.371.371.881.557 1.531.557.501 0 .946-.139 1.336-.417a4.922 4.922 0 0 0 1.002-.947c.334-.389.621-.844.862-1.364l.863.39a32.685 32.685 0 0 1-1.002 1.948 7.85 7.85 0 0 1-1.503 1.976c-.63.594-1.428 1.095-2.393 1.503-.946.409-2.143.613-3.59.613a7.787 7.787 0 0 1-2.366-.362 5.69 5.69 0 0 1-2.004-1.141c-.575-.52-1.039-1.169-1.392-1.949-.352-.779-.529-1.716-.529-2.811v-20.623h-3.117V139.5c.52 0 1.243-.13 2.171-.39.928-.278 1.874-.733 2.839-1.363.983-.631 1.893-1.476 2.728-2.533.835-1.058 1.428-2.366 1.781-3.924h2.226v8.21h4.537c1.484 0 2.227-.25 2.227-.751 0-.186-.093-.307-.279-.362a42.53 42.53 0 0 0-.64-.251 2.337 2.337 0 0 1-.612-.445c-.186-.186-.278-.492-.278-.919 0-.519.157-.927.473-1.224.334-.297.76-.445 1.28-.445.334 0 .622.074.863.222.259.13.473.316.64.557.167.222.287.482.362.779.092.297.139.594.139.891 0 1.206-.353 2.171-1.058 2.894-.686.705-1.8 1.058-3.34 1.058h-4.314Z" fill="#000"/><path d="M523.563 165.495c0 .241-.046.538-.139.891-.074.334-.269.658-.585.974-.297.297-.733.547-1.308.751-.575.223-1.354.334-2.338.334-.983 0-1.753-.12-2.31-.362-.556-.222-.974-.491-1.252-.807-.278-.315-.455-.64-.529-.974a5.1 5.1 0 0 1-.083-.807v-21.486c0-.538-.13-1.002-.39-1.392-.241-.408-.659-.612-1.253-.612-.315 0-.584.056-.807.167a4.311 4.311 0 0 0-.723.473l-.585-.696c.427-.352.9-.696 1.42-1.03a10.995 10.995 0 0 1 1.725-.918c.613-.26 1.271-.473 1.976-.64a9.638 9.638 0 0 1 2.227-.251c1.206 0 2.143.167 2.811.501.668.316 1.16.715 1.475 1.197.315.464.501.965.557 1.503.074.538.111 1.011.111 1.419v21.765Zm-9.407-32.73c0-.52.111-1.012.334-1.475.241-.483.566-.9.974-1.253a5.1 5.1 0 0 1 1.447-.835 5.22 5.22 0 0 1 1.809-.306c.631 0 1.216.102 1.754.306a4.637 4.637 0 0 1 1.447.835c.408.353.724.77.946 1.253.241.463.362.955.362 1.475 0 .538-.121 1.039-.362 1.503a3.75 3.75 0 0 1-.946 1.224 4.96 4.96 0 0 1-1.447.807 4.909 4.909 0 0 1-1.754.306 5.22 5.22 0 0 1-1.809-.306 5.49 5.49 0 0 1-1.447-.807 4.12 4.12 0 0 1-.974-1.224 3.424 3.424 0 0 1-.334-1.503Zm14.667 20.985c0-2.431.353-4.555 1.058-6.374.705-1.836 1.642-3.367 2.811-4.592a11.574 11.574 0 0 1 4.119-2.755 13.283 13.283 0 0 1 4.898-.919c1.708 0 3.34.288 4.899.863a10.902 10.902 0 0 1 4.091 2.589c1.188 1.168 2.134 2.653 2.839 4.453.705 1.781 1.058 3.896 1.058 6.345 0 2.431-.353 4.583-1.058 6.457-.705 1.874-1.651 3.452-2.839 4.732a11.76 11.76 0 0 1-4.091 2.922c-1.559.65-3.191.974-4.899.974-1.707 0-3.339-.306-4.898-.918a11.905 11.905 0 0 1-4.119-2.783c-1.169-1.225-2.106-2.756-2.811-4.593-.705-1.837-1.058-3.97-1.058-6.401Zm17.117-.278c0-1.485-.056-2.913-.167-4.286-.093-1.392-.288-2.626-.585-3.702-.296-1.076-.723-1.93-1.28-2.561-.556-.649-1.289-.974-2.199-.974-.909 0-1.642.343-2.198 1.03-.557.668-.984 1.559-1.281 2.672-.296 1.095-.491 2.347-.584 3.757a66.004 66.004 0 0 0-.139 4.342c0 1.484.046 2.941.139 4.37.093 1.41.288 2.672.584 3.785.297 1.113.724 2.013 1.281 2.699.556.668 1.289 1.002 2.198 1.002.91 0 1.643-.352 2.199-1.057.557-.705.984-1.633 1.28-2.783.297-1.151.492-2.45.585-3.897.111-1.447.167-2.913.167-4.397Zm30.253.668c0-2.338-.111-4.203-.334-5.595-.204-1.41-.482-2.477-.835-3.2-.352-.742-.742-1.225-1.169-1.448a2.626 2.626 0 0 0-1.308-.361c-.538 0-1.02.148-1.447.445a5.42 5.42 0 0 0-1.085.974c-.297.371-.557.742-.78 1.113-.204.371-.38.65-.528.835v18.592c0 .241-.038.538-.112.891-.074.334-.26.658-.556.974-.279.297-.706.547-1.281.751-.556.223-1.326.334-2.31.334-.983 0-1.762-.12-2.338-.362-.556-.222-.983-.491-1.28-.807-.297-.315-.482-.64-.557-.974a3.924 3.924 0 0 1-.111-.807v-21.486c0-.538-.13-1.002-.39-1.392-.241-.408-.658-.612-1.252-.612-.315 0-.584.056-.807.167a4.316 4.316 0 0 0-.724.473l-.584-.696c.427-.352.9-.696 1.419-1.03a11.006 11.006 0 0 1 1.726-.918c.612-.26 1.271-.473 1.976-.64a9.63 9.63 0 0 1 2.226-.251c1.206 0 2.144.204 2.811.613.668.389 1.16.862 1.476 1.419.315.557.501 1.141.556 1.754.074.593.112 1.094.112 1.502a15.21 15.21 0 0 1 2.337-2.644 12.75 12.75 0 0 1 1.169-.974c.446-.315.91-.593 1.392-.835a8 8 0 0 1 1.559-.612 6.572 6.572 0 0 1 1.697-.223c1.262 0 2.375.242 3.34.724.984.482 1.809 1.29 2.477 2.421.668 1.132 1.178 2.635 1.531 4.509.353 1.856.529 4.166.529 6.93 0 2.691-.241 5.029-.724 7.014-.482 1.985-1.113 3.674-1.892 5.065-.78 1.392-1.661 2.524-2.644 3.396-.984.891-1.977 1.586-2.978 2.087-1.002.501-1.967.845-2.895 1.03-.909.204-1.698.316-2.366.334l-.306-1.141a5.301 5.301 0 0 0 1.531-.612c.482-.279.918-.687 1.308-1.225s.733-1.215 1.03-2.032c.297-.835.547-1.874.751-3.117.223-1.243.381-2.709.473-4.397.112-1.707.167-3.693.167-5.956Z" fill="#000"/><path d="M534.082 46.304c.711 6.274.783 12.413.213 18.415-.539 5.965-1.597 11.641-3.173 17.029-1.547 5.35-3.555 10.3-6.025 14.852-2.467 4.585-5.26 8.583-8.381 11.993-3.121 3.41-6.523 6.174-10.206 8.294-3.65 2.115-7.446 3.397-11.389 3.844-3.017.342-5.407.092-7.169-.75-1.758-.808-2.735-2.069-2.929-3.783a6.036 6.036 0 0 1 .092-1.938c.136-.64.348-1.22.637-1.739.288-.519.655-.96 1.1-1.323a3.082 3.082 0 0 1 1.496-.586c.651-.074 1.237.19 1.756.791.486.604 1.011 1.257 1.577 1.956a10.528 10.528 0 0 0 1.993 1.962c.76.574 1.74.793 2.94.657 1.542-.175 3.123-.632 4.741-1.372 1.621-.704 3.216-1.649 4.783-2.834 1.601-1.189 3.16-2.598 4.677-4.229a54.106 54.106 0 0 0 4.504-5.303 386.962 386.962 0 0 0-4.626-10.935 372.326 372.326 0 0 0-5.366-11.945 270.642 270.642 0 0 0-5.628-11.499c-1.879-3.71-3.691-6.978-5.435-9.801-1.709-2.827-3.317-5.059-4.822-6.694-1.474-1.673-2.709-2.453-3.703-2.34-.651.073-1.137.233-1.456.477-.354.249-.75.589-1.187 1.02l-1.174-1.169a149.06 149.06 0 0 1 1.955-2.045c.685-.702 1.512-1.37 2.482-2 .97-.631 2.124-1.178 3.46-1.643 1.333-.498 2.959-.856 4.879-1.074 2.091-.237 4.083.023 5.975.781 1.922.72 3.764 2.265 5.526 4.634 1.277 1.766 2.63 3.904 4.061 6.416 1.465 2.507 2.965 5.324 4.5 8.449a240.993 240.993 0 0 1 4.699 10.197 469.493 469.493 0 0 1 4.947 11.472c1.621-4.698 2.8-9.607 3.539-14.726.735-5.153.804-10.37.205-15.65-.214-1.886-.517-3.484-.909-4.794-.391-1.31-.794-2.41-1.207-3.3-.418-.925-.783-1.7-1.097-2.324-.318-.659-.506-1.245-.564-1.76-.059-.514.098-.966.471-1.355a4.323 4.323 0 0 1 1.392-1.044 8.147 8.147 0 0 1 1.702-.61c.606-.172 1.114-.282 1.525-.329.926-.105 1.65.004 2.173.327.557.319.997.825 1.318 1.517.318.659.55 1.483.697 2.474.147.99.291 2.102.431 3.337Z" fill="#FD7E05"/><path d="M450.318 108.531c0 .44-.067.965-.203 1.574-.135.61-.474 1.185-1.015 1.727-.508.542-1.287.999-2.336 1.371-1.05.406-2.472.609-4.266.609s-3.216-.22-4.265-.66c-1.016-.406-1.795-.897-2.336-1.472-.508-.576-.83-1.168-.965-1.778-.136-.609-.203-1.1-.203-1.472V72.527a5.17 5.17 0 0 0-.203-1.421 4.589 4.589 0 0 0-.61-1.372 3.07 3.07 0 0 0-1.015-.965c-.407-.27-.881-.406-1.422-.406-.914 0-1.812.271-2.692.813-.88.508-1.709 1.1-2.488 1.777a22.18 22.18 0 0 0-1.981 2.031 32.838 32.838 0 0 0-1.167 1.524v34.023c0 .44-.068.965-.204 1.574-.135.61-.474 1.185-1.015 1.727-.508.542-1.287.999-2.336 1.371-1.016.406-2.421.609-4.215.609s-3.216-.22-4.266-.66c-1.015-.406-1.794-.897-2.336-1.472-.541-.576-.88-1.168-1.015-1.778-.136-.609-.203-1.1-.203-1.472V69.227c0-.982-.237-1.829-.711-2.54-.44-.744-1.202-1.117-2.285-1.117-.576 0-1.067.102-1.473.305a7.87 7.87 0 0 0-1.32.863l-1.067-1.27a26.945 26.945 0 0 1 2.59-1.878 19.953 19.953 0 0 1 3.148-1.676 22.5 22.5 0 0 1 3.606-1.168 17.575 17.575 0 0 1 4.062-.457c2.201 0 3.911.372 5.129 1.117 1.219.711 2.116 1.575 2.692 2.59a7.872 7.872 0 0 1 1.015 3.2c.136 1.083.204 1.997.204 2.742a38.182 38.182 0 0 1 5.128-4.825 28.406 28.406 0 0 1 2.438-1.777 24.988 24.988 0 0 1 2.793-1.523c.948-.474 1.93-.847 2.945-1.118a11.784 11.784 0 0 1 3.047-.406c1.964 0 3.639.355 5.027 1.066 1.388.711 2.506 1.575 3.352 2.59.846.982 1.456 2.032 1.828 3.149.406 1.083.609 2.031.609 2.844a42.763 42.763 0 0 1 5.129-4.825 28.406 28.406 0 0 1 2.438-1.777 21.694 21.694 0 0 1 2.742-1.523 17.47 17.47 0 0 1 2.945-1.118 11.79 11.79 0 0 1 3.047-.406c1.964 0 3.64.372 5.028 1.117 1.388.711 2.505 1.66 3.351 2.844.847 1.185 1.456 2.522 1.828 4.012.407 1.49.61 2.979.61 4.469v31.433c0 .305.017.643.05 1.016.034.338.119.677.254 1.015.136.305.339.559.61.762.304.203.694.305 1.168.305.643 0 1.218-.22 1.726-.66.508-.474.982-.948 1.422-1.422l1.219 1.066c-.474.711-1.1 1.507-1.879 2.387-.779.846-1.71 1.659-2.793 2.437-1.049.779-2.285 1.422-3.707 1.93-1.388.542-2.962.812-4.723.812-1.489 0-2.793-.203-3.91-.609-1.083-.372-2.014-.88-2.793-1.523a6.629 6.629 0 0 1-1.676-2.336 7.606 7.606 0 0 1-.558-2.895V72.527a5.17 5.17 0 0 0-.203-1.421 4.589 4.589 0 0 0-.61-1.372 2.632 2.632 0 0 0-.965-.965c-.406-.27-.88-.406-1.421-.406-.914 0-1.829.271-2.743.813-.88.508-1.709 1.1-2.488 1.777a17.786 17.786 0 0 0-1.93 2.031 33.777 33.777 0 0 0-1.168 1.524v34.023Z" fill="#E9B501"/><path d="M376.303 91.195c0-.846-.271-1.49-.813-1.93-.541-.44-1.235-.66-2.082-.66a7.51 7.51 0 0 0-3.402.813c-1.049.542-1.98 1.337-2.793 2.387-.812 1.05-1.456 2.353-1.93 3.91-.474 1.523-.711 3.3-.711 5.332 0 1.963.136 3.588.407 4.875.304 1.286.694 2.319 1.168 3.098.507.744 1.083 1.269 1.726 1.574.643.304 1.32.457 2.031.457.881 0 1.71-.22 2.489-.66a7.858 7.858 0 0 0 2.031-1.778 8.767 8.767 0 0 0 1.371-2.386 7.307 7.307 0 0 0 .508-2.641v-12.39Zm-8.074-22.242c-1.151 0-2.218.135-3.2.406-.981.271-1.828.61-2.539 1.016-.711.406-1.269.863-1.675 1.371-.407.474-.61.931-.61 1.371 0 .508.254.88.762 1.117a23.45 23.45 0 0 1 1.777.762c.643.27 1.219.677 1.727 1.219.541.508.812 1.303.812 2.387 0 .71-.152 1.37-.457 1.98-.271.576-.66 1.1-1.168 1.574a5.515 5.515 0 0 1-1.726 1.067 5.832 5.832 0 0 1-2.031.355c-1.896 0-3.437-.643-4.622-1.93-1.151-1.286-1.726-2.996-1.726-5.129 0-2.065.542-3.825 1.625-5.28 1.083-1.49 2.488-2.71 4.215-3.657 1.76-.948 3.741-1.642 5.941-2.082a31.273 31.273 0 0 1 6.602-.71c2.64 0 5.162.287 7.566.862 2.404.576 4.52 1.49 6.348 2.742a13.872 13.872 0 0 1 4.418 4.774c1.117 1.93 1.675 4.266 1.675 7.008v28.691c0 .305.017.643.051 1.016.034.372.119.711.254 1.015.136.305.339.559.61.762.27.203.66.305 1.168.305.609 0 1.167-.22 1.675-.66a14.018 14.018 0 0 0 1.422-1.422l1.27 1.066a38.135 38.135 0 0 1-1.828 2.336c-.711.847-1.575 1.642-2.59 2.387-1.016.745-2.201 1.371-3.555 1.879s-2.894.761-4.621.761c-2.133 0-4.029-.626-5.688-1.878-1.658-1.287-2.742-3.25-3.25-5.891-1.083 1.456-2.217 2.674-3.402 3.656-1.151.982-2.336 1.778-3.555 2.387a15.692 15.692 0 0 1-3.707 1.32 17.019 17.019 0 0 1-3.707.406c-1.625 0-3.199-.253-4.722-.761a11.716 11.716 0 0 1-4.114-2.387c-1.184-1.117-2.149-2.556-2.894-4.316-.711-1.761-1.067-3.91-1.067-6.45 0-3.08.61-5.602 1.829-7.566 1.218-1.963 2.81-3.605 4.773-4.926 1.997-1.354 4.249-2.505 6.754-3.453a395.336 395.336 0 0 0 7.769-2.996c1.964-.779 3.386-1.93 4.266-3.453.914-1.557 1.371-3.148 1.371-4.773 0-2.506-.745-4.503-2.234-5.993-1.456-1.523-3.453-2.285-5.992-2.285Z" fill="#57BC00"/><path d="M329.151 75.004a41.798 41.798 0 0 1 4.113-5.332 27.217 27.217 0 0 1 1.98-1.98 20.327 20.327 0 0 1 2.184-1.727 12.227 12.227 0 0 1 2.387-1.219 6.897 6.897 0 0 1 2.437-.457c1.727 0 3.081.525 4.063 1.574.981 1.016 1.472 2.455 1.472 4.317 0 1.15-.101 2.268-.304 3.351-.17 1.05-.525 2.336-1.067 3.86h-1.422c-.203-1.05-.677-1.913-1.422-2.59-.744-.711-1.828-1.067-3.25-1.067a8.27 8.27 0 0 0-3.097.61 18.494 18.494 0 0 0-2.996 1.422 30.304 30.304 0 0 0-2.743 1.878 88.67 88.67 0 0 0-2.335 1.93v32.957c0 .44-.068.965-.204 1.574-.135.61-.474 1.185-1.015 1.727-.508.542-1.287.999-2.336 1.371-1.016.406-2.421.609-4.215.609s-3.216-.22-4.266-.66c-1.015-.406-1.794-.897-2.336-1.472-.541-.576-.88-1.168-1.015-1.778-.136-.609-.203-1.1-.203-1.472V73.227c0-.982-.237-1.829-.711-2.54-.44-.744-1.202-1.117-2.285-1.117-.576 0-1.067.102-1.473.305a7.87 7.87 0 0 0-1.32.863l-1.067-1.27a26.945 26.945 0 0 1 2.59-1.878 19.953 19.953 0 0 1 3.148-1.676 22.5 22.5 0 0 1 3.606-1.168 17.575 17.575 0 0 1 4.062-.457c1.456 0 2.692.203 3.707.61 1.05.372 1.896.88 2.54 1.523a6.653 6.653 0 0 1 1.574 2.082c.372.779.643 1.574.812 2.387.203.778.322 1.54.356 2.285.034.71.051 1.32.051 1.828Z" fill="#00D0FF"/><path d="M298.834 108.164c0 .305.017.643.051 1.016.034.338.118.677.254 1.015.135.305.338.559.609.762.271.203.66.305 1.168.305.643 0 1.219-.22 1.727-.66.508-.474.981-.948 1.422-1.422l1.218 1.066a29.885 29.885 0 0 1-1.929 2.387c-.745.846-1.659 1.659-2.743 2.437-1.083.779-2.319 1.422-3.707 1.93-1.388.542-2.962.812-4.722.812-1.49 0-2.793-.203-3.91-.609-1.084-.372-2.015-.88-2.793-1.523a6.616 6.616 0 0 1-1.676-2.336 7.588 7.588 0 0 1-.559-2.895v-2.285a39.208 39.208 0 0 1-5.332 4.824 38.368 38.368 0 0 1-2.59 1.778c-.914.575-1.862 1.1-2.843 1.574-.982.44-1.998.795-3.047 1.066-1.05.271-2.099.406-3.149.406-2.031 0-3.774-.355-5.23-1.066-1.422-.745-2.573-1.71-3.453-2.894a11.924 11.924 0 0 1-1.93-4.012 16.93 16.93 0 0 1-.609-4.469V73.938c0-.305-.017-.627-.051-.965a3.212 3.212 0 0 0-.254-1.016 1.852 1.852 0 0 0-.609-.813c-.271-.203-.661-.304-1.168-.304-.61 0-1.185.237-1.727.71-.508.44-.965.898-1.371 1.372l-1.27-1.066a30.15 30.15 0 0 1 1.879-2.337c.779-.88 1.71-1.71 2.793-2.488 1.084-.778 2.319-1.422 3.707-1.93 1.422-.541 2.996-.812 4.723-.812 1.49 0 2.793.203 3.91.61 1.117.372 2.048.897 2.793 1.574a6.063 6.063 0 0 1 1.676 2.336 7.23 7.23 0 0 1 .559 2.843v33.922c0 .474.067.965.203 1.473.169.474.389.914.66 1.32.304.406.677.745 1.117 1.016.44.237.965.355 1.574.355.982 0 1.964-.254 2.946-.761a14.885 14.885 0 0 0 2.691-1.778 20.21 20.21 0 0 0 2.082-2.082 39.277 39.277 0 0 0 1.32-1.523V73.938c0-.305-.017-.627-.051-.965a3.185 3.185 0 0 0-.253-1.016 1.853 1.853 0 0 0-.61-.813c-.271-.203-.66-.304-1.168-.304-.609 0-1.185.237-1.726.71-.508.44-.965.898-1.371 1.372l-1.27-1.066a29.914 29.914 0 0 1 1.879-2.337c.779-.88 1.71-1.71 2.793-2.488 1.083-.778 2.319-1.422 3.707-1.93 1.422-.541 2.996-.812 4.723-.812 1.489 0 2.793.203 3.91.61 1.117.372 2.048.897 2.793 1.574a6.073 6.073 0 0 1 1.676 2.336c.372.88.558 1.828.558 2.843v36.512Z" fill="#0271FF"/><path d="M217.744 111.863c1.354 0 2.692-.254 4.012-.761 1.32-.474 2.488-1.287 3.504-2.438 1.049-1.117 1.896-2.59 2.539-4.418.643-1.828.965-4.062.965-6.703 0-2.844-.711-5.603-2.133-8.277-1.388-2.675-3.148-5.299-5.281-7.872a109.748 109.748 0 0 0-6.856-7.718 131.973 131.973 0 0 1-6.855-7.82c-2.099-2.675-3.86-5.417-5.281-8.227-1.388-2.844-2.082-5.806-2.082-8.887 0-3.08.558-5.857 1.675-8.328 1.151-2.505 2.692-4.621 4.621-6.348 1.964-1.76 4.232-3.114 6.805-4.062 2.607-.948 5.383-1.422 8.328-1.422 3.149 0 5.942.339 8.379 1.016 2.471.643 4.553 1.54 6.246 2.691 1.727 1.117 3.03 2.454 3.91 4.012a9.581 9.581 0 0 1 1.321 4.875 9.76 9.76 0 0 1-.356 2.539 7.435 7.435 0 0 1-1.117 2.336 6.477 6.477 0 0 1-1.93 1.777c-.778.474-1.692.711-2.742.711-1.252 0-2.183-.372-2.793-1.117-.575-.779-1.015-1.727-1.32-2.844a43.784 43.784 0 0 1-.711-3.656c-.203-1.354-.525-2.59-.965-3.707a6.91 6.91 0 0 0-1.98-2.793c-.881-.779-2.167-1.168-3.86-1.168-.914 0-1.828.203-2.742.61-.88.406-1.693 1.032-2.437 1.878-.711.813-1.287 1.862-1.727 3.149-.44 1.286-.66 2.81-.66 4.57 0 2.031.423 4.012 1.269 5.941.847 1.93 1.964 3.843 3.352 5.739a68.23 68.23 0 0 0 4.723 5.636 932.696 932.696 0 0 1 5.433 5.688 128.97 128.97 0 0 1 5.434 5.89 48.497 48.497 0 0 1 4.773 6.247 33.459 33.459 0 0 1 3.352 6.804c.846 2.37 1.269 4.858 1.269 7.465 0 3.826-.744 7.245-2.234 10.258-1.456 2.979-3.453 5.484-5.992 7.516-2.505 2.065-5.451 3.639-8.836 4.722-3.386 1.084-6.991 1.625-10.817 1.625-3.453 0-6.517-.44-9.191-1.32-2.641-.846-4.875-1.981-6.703-3.402-1.828-1.422-3.216-3.047-4.164-4.875-.914-1.795-1.371-3.657-1.371-5.586 0-.813.118-1.676.355-2.59.271-.948.643-1.811 1.117-2.59a6.808 6.808 0 0 1 1.879-1.93c.745-.541 1.608-.812 2.59-.812 1.016 0 1.828.254 2.438.761.643.508 1.151 1.185 1.523 2.032.372.846.677 1.81.914 2.894s.491 2.184.762 3.301a28.682 28.682 0 0 0 1.015 3.301 9.834 9.834 0 0 0 1.676 2.894c.711.847 1.625 1.524 2.742 2.032 1.118.507 2.523.761 4.215.761Z" fill="#8142D0"/><path d="M562.803 90.695c0-.846-.271-1.49-.813-1.93-.541-.44-1.235-.66-2.082-.66a7.51 7.51 0 0 0-3.402.813c-1.049.542-1.98 1.337-2.793 2.387-.812 1.05-1.456 2.353-1.93 3.91-.474 1.523-.711 3.3-.711 5.332 0 1.963.136 3.588.407 4.875.304 1.286.694 2.319 1.168 3.098.507.744 1.083 1.269 1.726 1.574.643.304 1.32.457 2.031.457.881 0 1.71-.22 2.489-.66a7.858 7.858 0 0 0 2.031-1.778 8.767 8.767 0 0 0 1.371-2.386 7.307 7.307 0 0 0 .508-2.641v-12.39Zm-8.074-22.242c-1.151 0-2.218.135-3.2.406-.981.271-1.828.61-2.539 1.016-.711.406-1.269.863-1.675 1.371-.407.474-.61.931-.61 1.371 0 .508.254.88.762 1.117a23.45 23.45 0 0 1 1.777.762c.643.27 1.219.677 1.727 1.219.541.508.812 1.303.812 2.387 0 .71-.152 1.37-.457 1.98-.271.576-.66 1.1-1.168 1.574a5.515 5.515 0 0 1-1.726 1.067 5.832 5.832 0 0 1-2.031.355c-1.896 0-3.437-.643-4.622-1.93-1.151-1.286-1.726-2.996-1.726-5.129 0-2.065.542-3.825 1.625-5.28 1.083-1.49 2.488-2.71 4.215-3.657 1.76-.948 3.741-1.642 5.941-2.082a31.273 31.273 0 0 1 6.602-.71c2.64 0 5.162.287 7.566.862 2.404.576 4.52 1.49 6.348 2.742a13.872 13.872 0 0 1 4.418 4.774c1.117 1.93 1.675 4.266 1.675 7.008v28.691c0 .305.017.643.051 1.016.034.372.119.711.254 1.015.136.305.339.559.61.762.27.203.66.305 1.168.305.609 0 1.167-.22 1.675-.66a14.018 14.018 0 0 0 1.422-1.422l1.27 1.066a38.135 38.135 0 0 1-1.828 2.336c-.711.847-1.575 1.642-2.59 2.387-1.016.745-2.201 1.371-3.555 1.879s-2.894.761-4.621.761c-2.133 0-4.029-.626-5.688-1.878-1.658-1.287-2.742-3.25-3.25-5.891-1.083 1.456-2.217 2.674-3.402 3.656-1.151.982-2.336 1.778-3.555 2.387a15.692 15.692 0 0 1-3.707 1.32 17.019 17.019 0 0 1-3.707.406c-1.625 0-3.199-.253-4.722-.761a11.716 11.716 0 0 1-4.114-2.387c-1.184-1.117-2.149-2.556-2.894-4.316-.711-1.761-1.067-3.91-1.067-6.45 0-3.08.61-5.602 1.829-7.566 1.218-1.963 2.81-3.605 4.773-4.926 1.997-1.354 4.249-2.505 6.754-3.453a395.336 395.336 0 0 0 7.769-2.996c1.964-.779 3.386-1.93 4.266-3.453.914-1.557 1.371-3.148 1.371-4.773 0-2.506-.745-4.503-2.234-5.993-1.456-1.523-3.453-2.285-5.992-2.285Z" fill="#FE290C"/></svg>